<svg width="32" height="32" viewBox="0 0 32 32" fill="none" xmlns="http://www.w3.org/2000/svg">
<g clip-path="url(#clip0_6_21)">
<path d="M22.8882 10.1493L18.6749 14.3625L20.3062 15.9939L24.5195 11.7806L22.8882 10.1493Z" fill="#F13C6E"/>
<path d="M14.3638 18.6826L10.1505 22.8959L11.7818 24.5272L15.9951 20.3139L14.3638 18.6826Z" fill="#F13C6E"/>
<path d="M20.2069 7.48242L15.9937 11.6957L17.625 13.327L21.8382 9.11374L20.2069 7.48242Z" fill="#F13C6E"/>
<path d="M11.6942 16.0042L7.48096 20.2175L9.11227 21.8488L13.3255 17.6355L11.6942 16.0042Z" fill="#F13C6E"/>
<path d="M9.103 10.1492L7.47168 11.7805L11.6849 15.9937L13.3163 14.3624L9.103 10.1492Z" fill="#F13C6E"/>
<path d="M11.7816 7.47958L10.1503 9.1109L14.3635 13.3242L15.9948 11.6928L11.7816 7.47958Z" fill="#F13C6E"/>
<path d="M20.3037 15.9924L18.6724 17.6237L22.8856 21.8369L24.5169 20.2056L20.3037 15.9924Z" fill="#F13C6E"/>
<path d="M17.6368 18.6736L16.0055 20.305L20.2187 24.5182L21.8501 22.8869L17.6368 18.6736Z" fill="#F13C6E"/>
<path d="M21.8424 26.1577L20.2158 24.5311L16 28.7469L11.7843 24.5311L10.1577 26.1577L16 32L21.8424 26.1577Z" fill="#EFEFEF"/>
<path d="M7.46888 11.7842L5.84232 10.1577L0 16L5.84232 21.8423L7.46888 20.2158L3.25311 16L7.46888 11.7842Z" fill="#EFEFEF"/>
<path d="M26.1577 10.1577L24.5311 11.7842L28.7469 16L24.5311 20.2158L26.1577 21.8423L32 16L26.1577 10.1577Z" fill="#EFEFEF"/>
<path d="M20.2158 7.46888L21.8424 5.84232L16 0L10.1577 5.84232L11.7843 7.46888L16 3.25311L20.2158 7.46888Z" fill="#EFEFEF"/>
</g>
<defs>
<clipPath id="clip0_6_21">
<rect width="32" height="32" fill="white"/>
</clipPath>
</defs>
</svg>
